<?xml version="1.0" encoding="UTF-8"?>
<svg version="1.1" xmlns="http://www.w3.org/2000/svg" width="290" height="184">
<path d="M0 0 C12.21 0 24.42 0 37 0 C39.47196435 4.9439287 41.66629999 9.44510861 43.59375 14.54296875 C44.29419434 16.37927856 44.29419434 16.37927856 45.00878906 18.25268555 C45.25149536 18.89346039 45.49420166 19.53423523 45.7442627 20.19442749 C50.06925075 31.60052687 54.5568795 42.92805529 59.25 54.1875 C60.00917725 56.00906616 60.00917725 56.00906616 60.78369141 57.86743164 C61.27530762 59.04684326 61.76692383 60.22625488 62.2734375 61.44140625 C65.51625158 69.22171514 68.64739491 77.04370813 71.75830078 84.87744141 C74.28397449 91.22887019 76.82090085 97.57580963 79.35772705 103.92279053 C80.29447185 106.26737719 81.23004458 108.61242909 82.16552734 110.95751953 C82.75222645 112.42612763 83.33897564 113.89471571 83.92578125 115.36328125 C84.19112167 116.02921799 84.4564621 116.69515472 84.72984314 117.38127136 C86.42385551 121.6165201 88.18881141 125.81401421 90 130 C92.49575547 127.50424453 93.18325409 125.27850565 94.43359375 121.97265625 C94.66694931 121.36145935 94.90030487 120.75026245 95.14073181 120.12054443 C95.64563403 118.7973123 96.14825695 117.47320872 96.64886475 116.14834595 C97.99460604 112.58902114 99.3586139 109.03671859 100.72265625 105.484375 C100.99972412 104.76204178 101.27679199 104.03970856 101.56225586 103.29548645 C104.07527573 96.76332007 106.70739884 90.28301033 109.375 83.8125 C112.53567779 76.13656822 115.62576329 68.43944376 118.625 60.69921875 C118.93603668 59.89652054 119.24707336 59.09382233 119.5675354 58.26679993 C121.09827034 54.31137311 122.62325321 50.35380877 124.14208984 46.39379883 C126.84571888 39.36807783 129.63381533 32.44494821 132.81640625 25.61865234 C135.011207 20.76274624 136.89603627 15.78322546 138.8125 10.8125 C140.194375 7.244375 141.57625 3.67625 143 0 C155.21 0 167.42 0 180 0 C184.49356223 8.98712446 184.49356223 8.98712446 186.09375 13.1484375 C186.47370117 14.1273999 186.85365234 15.1063623 187.24511719 16.11499023 C187.65922852 17.19079346 188.07333984 18.26659668 188.5 19.375 C189.47242021 21.87431156 190.44611013 24.37308943 191.421875 26.87109375 C191.69187317 27.56282181 191.96187134 28.25454987 192.24005127 28.96723938 C196.35131681 39.48057971 200.55572591 49.95707791 204.75 60.4375 C205.18073822 61.51424988 205.61147644 62.59099976 206.05526733 63.70037842 C212.34528123 79.42034543 218.67151015 95.12527143 225.06738281 110.80249023 C225.62459787 112.17030878 226.18156949 113.53822653 226.73828125 114.90625 C227.00321381 115.55703018 227.26814636 116.20781036 227.54110718 116.87831116 C230.02447171 123.00679095 232.40905233 129.1731978 234.76374817 135.35217285 C235.92977677 138.94415689 235.92977677 138.94415689 238 142 C239.45784324 142.08782899 240.9199141 142.10694158 242.38037109 142.09765625 C243.31158783 142.09435303 244.24280457 142.0910498 245.20223999 142.08764648 C246.72248276 142.07519897 246.72248276 142.07519897 248.2734375 142.0625 C249.30812164 142.05871338 250.34280579 142.05492676 251.40884399 142.05102539 C255.85529295 142.03460593 260.3016518 142.00652586 264.74804688 141.97949219 C267.9856728 141.96145263 271.2232839 141.94932693 274.4609375 141.9375 C275.47038422 141.92920166 276.47983093 141.92090332 277.51986694 141.91235352 C278.92614853 141.90739868 278.92614853 141.90739868 280.36083984 141.90234375 C281.18611176 141.89710693 282.01138367 141.89187012 282.86166382 141.88647461 C285 142 285 142 288 143 C288.0246501 148.10863896 288.04283607 153.21724359 288.05493164 158.32592773 C288.05997204 160.06519168 288.0668043 161.80445136 288.07543945 163.54370117 C288.08751792 166.03825937 288.09323108 168.53276173 288.09765625 171.02734375 C288.10281754 171.80963852 288.10797882 172.59193329 288.11329651 173.39793396 C288.11349226 175.26567114 288.06199694 177.13329204 288 179 C287 180 287 180 284.14634705 180.12025452 C282.86949539 180.11803391 281.59264374 180.11581329 280.27709961 180.11352539 C279.5746965 180.11367142 278.8722934 180.11381744 278.14860535 180.1139679 C275.81648722 180.11326872 273.484448 180.10547617 271.15234375 180.09765625 C269.53951562 180.09579208 267.92668693 180.09436818 266.31385803 180.09336853 C262.06084643 180.08954323 257.80786876 180.07971285 253.55487061 180.06866455 C249.2182257 180.05845069 244.88157533 180.05387096 240.54492188 180.04882812 C232.02993231 180.03809059 223.51497037 180.02101403 215 180 C212.70438126 174.89518887 210.46511081 169.78419513 208.40625 164.578125 C207.70628906 162.81577515 207.70628906 162.81577515 206.9921875 161.01782227 C206.74952148 160.40496368 206.50685547 159.7921051 206.25683594 159.16067505 C201.93593364 148.25231327 197.52130734 137.38950808 193 126.5625 C188.5611757 115.91424807 184.32658667 105.20389987 180.19268799 94.43469238 C176.51404775 84.85465392 172.74746087 75.31593675 168.875 65.8125 C168.41343506 64.67796387 167.95187012 63.54342773 167.47631836 62.37451172 C164.91895895 56.10528215 164.91895895 56.10528215 162 50 C159.16426383 55.48531898 156.74030132 60.97564039 154.5625 66.75 C152.56597571 71.96753369 150.54778119 77.1649963 148.375 82.3125 C146.26911211 87.30194027 144.31371342 92.33784719 142.40625 97.40625 C140.7784337 101.56622499 139.05323114 105.68094775 137.32910156 109.80175781 C135.2142312 114.89081029 133.167875 120.00670773 131.125 125.125 C130.69227783 126.20740967 130.25955566 127.28981934 129.8137207 128.4050293 C127.2374602 134.86119444 124.69399058 141.32895997 122.1875 147.8125 C110.82457193 177.17542807 110.82457193 177.17542807 108 180 C105.3337397 180.08855161 102.69352886 180.11524673 100.02734375 180.09765625 C99.22970108 180.0962413 98.43205841 180.09482635 97.61024475 180.09336853 C95.05262565 180.08775316 92.49509282 180.07519812 89.9375 180.0625 C88.20768355 180.05748698 86.47786574 180.05292373 84.74804688 180.04882812 C80.49866447 180.03777875 76.24934688 180.02050386 72 180 C71.62488281 179.04480469 71.24976562 178.08960938 70.86328125 177.10546875 C68.5112384 171.15119856 66.1564992 165.21951914 63.4609375 159.41015625 C60.58200899 153.18932708 58.10528916 146.8256713 55.625 140.4375 C55.14530762 139.20966797 54.66561523 137.98183594 54.17138672 136.71679688 C52.07487234 131.34690123 49.98852259 125.9730882 47.90625 120.59765625 C47.59993652 119.8075415 47.29362305 119.01742676 46.97802734 118.20336914 C46.44010765 116.81392289 45.903757 115.4238672 45.36962891 114.03295898 C43.45736122 109.08121213 41.41888568 104.18621473 39.37011719 99.28955078 C36.89782787 93.35376564 34.48149087 87.39514727 32.0625 81.4375 C31.7860968 80.75724762 31.5096936 80.07699524 31.22491455 79.37612915 C26.14366781 66.86720928 21.1232605 54.33437042 16.12280273 41.79296875 C13.33403956 34.80335958 10.52880144 27.82143864 7.671875 20.859375 C7.4108902 20.22272415 7.1499054 19.5860733 6.88101196 18.93013 C5.65851279 15.94964422 4.43174193 12.97102756 3.19873047 9.99487305 C2.77479004 8.96402588 2.35084961 7.93317871 1.9140625 6.87109375 C1.5423291 5.97318115 1.1705957 5.07526855 0.78759766 4.15014648 C0 2 0 2 0 0 Z " fill="#252429" transform="translate(0,2)"/>
<path d="M0 0 C0.66 0 1.32 0 2 0 C4.359375 5.8984375 4.359375 5.8984375 5.13517761 7.8380127 C6.62974583 11.57452993 8.12445944 15.31098891 9.61938477 19.04736328 C12.95214288 27.37762493 16.28343997 35.70846537 19.61116028 44.04074097 C21.71928826 49.31908786 23.82820493 54.59711939 25.9375 59.875 C26.57508743 61.47042633 26.57508743 61.47042633 27.22555542 63.0980835 C33.45710054 78.68691359 39.72646577 94.2598101 46.06811523 109.80419922 C46.62508754 111.17144754 47.18181508 112.5387956 47.73828125 113.90625 C48.0031987 114.55699493 48.26811615 115.20773987 48.5410614 115.87820435 C51.02444712 122.00671733 53.40903856 128.17316166 55.76374817 134.35217285 C56.92977677 137.94415689 56.92977677 137.94415689 59 141 C60.45784324 141.08782899 61.9199141 141.10694158 63.38037109 141.09765625 C64.31158783 141.09435303 65.24280457 141.0910498 66.20223999 141.08764648 C67.72248276 141.07519897 67.72248276 141.07519897 69.2734375 141.0625 C70.30812164 141.05871338 71.34280579 141.05492676 72.40884399 141.05102539 C76.85529295 141.03460593 81.3016518 141.00652586 85.74804688 140.97949219 C88.9856728 140.96145263 92.2232839 140.94932693 95.4609375 140.9375 C96.47038422 140.92920166 97.47983093 140.92090332 98.51986694 140.91235352 C99.92614853 140.90739868 99.92614853 140.90739868 101.36083984 140.90234375 C102.18611176 140.89710693 103.01138367 140.89187012 103.86166382 140.88647461 C106 141 106 141 109 142 C109.0246501 147.10863896 109.04283607 152.21724359 109.05493164 157.32592773 C109.05997204 159.06519168 109.0668043 160.80445136 109.07543945 162.54370117 C109.08751792 165.03825937 109.09323108 167.53276173 109.09765625 170.02734375 C109.10281754 170.80963852 109.10797882 171.59193329 109.11329651 172.39793396 C109.11349226 174.26567114 109.06199694 176.13329204 109 178 C108 179 108 179 105.14634705 179.12025452 C103.86949539 179.11803391 102.59264374 179.11581329 101.27709961 179.11352539 C100.5746965 179.11367142 99.8722934 179.11381744 99.14860535 179.1139679 C96.81648722 179.11326872 94.484448 179.10547617 92.15234375 179.09765625 C90.53951562 179.09579208 88.92668693 179.09436818 87.31385803 179.09336853 C83.06084643 179.08954323 78.80786876 179.07971285 74.55487061 179.06866455 C70.2182257 179.05845069 65.88157533 179.05387096 61.54492188 179.04882812 C53.02993231 179.03809059 44.51497037 179.02101403 36 179 C33.70438126 173.89518887 31.46511081 168.78419513 29.40625 163.578125 C28.93960938 162.4032251 28.47296875 161.2283252 27.9921875 160.01782227 C27.74952148 159.40496368 27.50685547 158.7921051 27.25683594 158.16067505 C22.93593364 147.25231327 18.52130734 136.38950808 14 125.5625 C9.82796006 115.55423445 5.82384161 105.49672162 1.9375 95.375 C-1.97276453 85.19157612 -5.9522331 75.04204958 -10.0625 64.9375 C-10.51568604 63.81972168 -10.96887207 62.70194336 -11.43579102 61.55029297 C-13.11362229 57.4459567 -14.74757187 53.46322406 -16.87109375 49.56640625 C-18.65046574 45.52125955 -17.38672056 43.10810313 -15.984375 39.08984375 C-13.52574221 32.81099356 -11.01719674 26.55924721 -8.40234375 20.34375 C-6.6450294 16.1536077 -4.91563168 11.95224455 -3.1875 7.75 C-2.87312988 6.9859082 -2.55875977 6.22181641 -2.23486328 5.43457031 C-1.48968551 3.62313874 -0.74480959 1.81158299 0 0 Z " fill="#EA6450" transform="translate(179,3)"/>
</svg>
